<svg width="48" height="48" viewBox="0 0 48 48" fill="none" xmlns="http://www.w3.org/2000/svg">
<path d="M24 48C37.2548 48 48 37.2548 48 24C48 10.7452 37.2548 0 24 0C10.7452 0 0 10.7452 0 24C0 37.2548 10.7452 48 24 48Z" fill="#FFE6AE"/>
<path d="M24.0007 45.0427C35.6223 45.0427 45.0434 35.6215 45.0434 24C45.0434 12.3784 35.6223 2.95729 24.0007 2.95729C12.3791 2.95729 2.95801 12.3784 2.95801 24C2.95801 35.6215 12.3791 45.0427 24.0007 45.0427Z" fill="#FA8C16"/>
<path d="M22.7399 40.9217C19.5765 40.4026 16.5746 39.164 13.9656 37.3013C11.3566 35.4387 9.21012 33.0018 7.69172 30.1786C6.17332 27.3553 5.32353 24.221 5.20787 21.0175C5.09221 17.8139 5.71377 14.6265 7.02462 11.7011C6.77907 12 6.5442 12.3096 6.30932 12.6192C3.36285 17.2164 2.31976 22.7792 3.4006 28.1315C4.48144 33.4838 7.60148 38.206 12.101 41.2995C16.6005 44.393 22.1267 45.6153 27.5112 44.708C32.8956 43.8007 37.7161 40.8349 40.9534 36.4377C41.5621 35.4981 42.0975 34.513 42.5549 33.4911C40.2034 36.3703 37.1308 38.5748 33.65 39.8801C30.1693 41.1854 26.4048 41.5448 22.7399 40.9217Z" fill="#E87800"/>
<path d="M15.2037 15L21.524 11.6477C21.6605 11.5757 21.8102 11.5324 21.9641 11.5204C22.1179 11.5084 22.2726 11.528 22.4186 11.578C22.5646 11.628 22.6988 11.7073 22.813 11.8111C22.9272 11.9149 23.019 12.0409 23.0827 12.1815L28.4955 23.8719C28.6121 24.124 28.632 24.4101 28.5512 24.6759C28.4705 24.9417 28.2949 25.1685 28.0578 25.3132L23.9795 27.8114C23.7363 27.9612 23.4452 28.0127 23.1654 27.9551C22.8856 27.8976 22.6384 27.7354 22.4741 27.5018L14.8087 16.7082C14.7059 16.5755 14.634 16.4216 14.598 16.2577C14.5621 16.0937 14.5631 15.9239 14.6009 15.7603C14.6387 15.5968 14.7124 15.4438 14.8167 15.3123C14.9209 15.1808 15.0531 15.0741 15.2037 15ZM28.9225 28.4626C28.1936 28.4626 27.4811 28.6789 26.8751 29.0841C26.2692 29.4893 25.7971 30.0652 25.5186 30.7388C25.2402 31.4125 25.1679 32.1536 25.3108 32.8684C25.4538 33.5832 25.8057 34.2394 26.3219 34.7541C26.838 35.2688 27.4953 35.6188 28.2105 35.7597C28.9257 35.9006 29.6666 35.8261 30.3395 35.5457C31.0123 35.2653 31.5868 34.7915 31.9903 34.1844C32.3937 33.5773 32.6079 32.8641 32.6058 32.1352C32.6058 31.652 32.5105 31.1736 32.3252 30.7273C32.14 30.281 31.8685 29.8757 31.5264 29.5345C31.1842 29.1933 30.7781 28.923 30.3312 28.7391C29.8844 28.5552 29.4057 28.4612 28.9225 28.4626Z" fill="#D12C2C"/>
<path d="M16.0569 14.573L22.7508 11.0285C22.8637 10.9689 22.9875 10.9329 23.1148 10.9228C23.242 10.9127 23.37 10.9286 23.4908 10.9696C23.6117 11.0105 23.723 11.0757 23.8179 11.1611C23.9127 11.2465 23.9892 11.3503 24.0426 11.4662L29.6796 23.5409C29.776 23.7529 29.7911 23.9928 29.7222 24.2152C29.6533 24.4376 29.5052 24.6269 29.306 24.7473L24.9287 27.363C24.7265 27.4852 24.4856 27.5267 24.2541 27.4792C24.0225 27.4317 23.8174 27.2987 23.6796 27.1068L15.7899 15.9929C15.702 15.8866 15.6386 15.7624 15.6041 15.6289C15.5696 15.4953 15.5649 15.3559 15.5904 15.2203C15.6159 15.0848 15.6709 14.9565 15.7515 14.8447C15.8321 14.7328 15.9364 14.64 16.0569 14.573ZM29.8505 27.6726C29.1215 27.6705 28.4083 27.8847 27.8012 28.2881C27.1941 28.6916 26.7204 29.2661 26.4399 29.9389C26.1595 30.6118 26.0851 31.3527 26.226 32.0679C26.3669 32.7831 26.7168 33.4404 27.2315 33.9565C27.7462 34.4727 28.4025 34.8246 29.1173 34.9676C29.832 35.1106 30.5732 35.0382 31.2468 34.7598C31.9205 34.4813 32.4964 34.0092 32.9016 33.4033C33.3068 32.7973 33.5231 32.0848 33.5231 31.3559C33.5245 30.8727 33.4305 30.394 33.2466 29.9472C33.0626 29.5003 32.7923 29.0942 32.4512 28.7521C32.11 28.4099 31.7046 28.1384 31.2584 27.9532C30.8121 27.7679 30.3336 27.6726 29.8505 27.6726Z" fill="#FFF7E6"/>
</svg>
